<svg width="21" height="21" viewBox="0 0 21 21" fill="none" xmlns="http://www.w3.org/2000/svg">
<path opacity="0.5" d="M8.32646 3.00021C8.19522 3.1186 8.05751 3.2296 7.91396 3.33271C7.66562 3.49938 7.38646 3.61438 7.09312 3.67271C6.96562 3.69771 6.83229 3.70854 6.56646 3.72938C5.89896 3.78271 5.56479 3.80938 5.28646 3.90771C4.96821 4.02007 4.67915 4.20227 4.4405 4.44092C4.20185 4.67957 4.01966 4.96863 3.90729 5.28688C3.80896 5.56521 3.78229 5.89938 3.72896 6.56688C3.71987 6.74335 3.70095 6.91918 3.67229 7.09354C3.61396 7.38688 3.49896 7.66604 3.33229 7.91438C3.25979 8.02271 3.17312 8.12438 2.99979 8.32688C2.56562 8.83688 2.34812 9.09188 2.22062 9.35854C1.92646 9.97521 1.92646 10.6919 2.22062 11.3085C2.34812 11.5752 2.56562 11.8302 2.99979 12.3402C3.17312 12.5427 3.25979 12.6444 3.33229 12.7527C3.49896 13.001 3.61396 13.2802 3.67229 13.5735C3.69729 13.701 3.70812 13.8344 3.72896 14.1002C3.78229 14.7677 3.80896 15.1019 3.90729 15.3802C4.01966 15.6985 4.20185 15.9875 4.4405 16.2262C4.67915 16.4648 4.96821 16.647 5.28646 16.7594C5.56479 16.8577 5.89896 16.8844 6.56646 16.9377C6.83229 16.9585 6.96562 16.9694 7.09312 16.9944C7.38646 17.0527 7.66562 17.1685 7.91396 17.3344C8.02229 17.4069 8.12396 17.4935 8.32646 17.6669C8.83646 18.101 9.09146 18.3185 9.35812 18.446C9.97479 18.7402 10.6915 18.7402 11.3081 18.446C11.5748 18.3185 11.8298 18.101 12.3398 17.6669C12.5423 17.4935 12.644 17.4069 12.7523 17.3344C13.0006 17.1677 13.2798 17.0527 13.5731 16.9944C13.7006 16.9694 13.834 16.9585 14.0998 16.9377C14.7673 16.8844 15.1015 16.8577 15.3798 16.7594C15.698 16.647 15.9871 16.4648 16.2257 16.2262C16.4644 15.9875 16.6466 15.6985 16.759 15.3802C16.8573 15.1019 16.884 14.7677 16.9373 14.1002C16.9581 13.8344 16.969 13.701 16.994 13.5735C17.0523 13.2802 17.1681 13.001 17.334 12.7527C17.4065 12.6444 17.4931 12.5427 17.6665 12.3402C18.1006 11.8302 18.3181 11.5752 18.4456 11.3085C18.7398 10.6919 18.7398 9.97521 18.4456 9.35854C18.3181 9.09188 18.1006 8.83688 17.6665 8.32688C17.5479 8.19581 17.4369 8.05809 17.334 7.91438C17.1674 7.66595 17.0519 7.38695 16.994 7.09354C16.9653 6.91917 16.9464 6.74335 16.9373 6.56688C16.884 5.89938 16.8573 5.56521 16.759 5.28688C16.6466 4.96863 16.4644 4.67957 16.2257 4.44092C15.9871 4.20227 15.698 4.02007 15.3798 3.90771C15.1015 3.80938 14.7673 3.78271 14.0998 3.72938C13.9233 3.72029 13.7475 3.70137 13.5731 3.67271C13.2797 3.61478 13.0007 3.49922 12.7523 3.33271C12.6087 3.2296 12.471 3.11859 12.3398 3.00021C11.8298 2.56604 11.5748 2.34854 11.3081 2.22104C11.0037 2.07553 10.6705 2 10.3331 2C9.9957 2 9.66256 2.07553 9.35812 2.22104C9.09146 2.34854 8.83646 2.56604 8.32646 3.00021Z" fill="#29853D"/>
<path d="M13.631 7.03378C13.7624 7.16523 13.8362 7.34349 13.8362 7.52935C13.8362 7.71522 13.7624 7.89348 13.631 8.02492L8.0253 13.6308C7.89252 13.7549 7.71672 13.8226 7.53498 13.8196C7.35325 13.8165 7.1798 13.743 7.05122 13.6146C6.92264 13.4861 6.84899 13.3127 6.84581 13.131C6.84263 12.9492 6.91017 12.7734 7.03418 12.6405L12.6399 7.03378C12.705 6.96859 12.7823 6.91687 12.8674 6.88158C12.9525 6.84629 13.0438 6.82812 13.1359 6.82812C13.228 6.82812 13.3192 6.84629 13.4044 6.88158C13.4895 6.91687 13.5668 6.96859 13.6319 7.03378M13.6035 12.6689C13.6035 12.9167 13.505 13.1543 13.3298 13.3295C13.1546 13.5048 12.917 13.6032 12.6692 13.6032C12.4214 13.6032 12.1837 13.5048 12.0085 13.3295C11.8333 13.1543 11.7349 12.9167 11.7349 12.6689C11.7349 12.4211 11.8333 12.1835 12.0085 12.0082C12.1837 11.833 12.4214 11.7346 12.6692 11.7346C12.917 11.7346 13.1546 11.833 13.3298 12.0082C13.505 12.1835 13.6035 12.4211 13.6035 12.6689ZM7.99688 8.93081C8.24467 8.93081 8.48231 8.83238 8.65752 8.65716C8.83273 8.48194 8.93117 8.2443 8.93117 7.99651C8.93117 7.74871 8.83273 7.51107 8.65752 7.33585C8.48231 7.16064 8.24467 7.0622 7.99688 7.0622C7.74909 7.0622 7.51145 7.16064 7.33624 7.33585C7.16103 7.51107 7.06259 7.74871 7.06259 7.99651C7.06259 8.2443 7.16103 8.48194 7.33624 8.65716C7.51145 8.83238 7.74909 8.93081 7.99688 8.93081Z" fill="#29853D"/>
</svg>
