<svg width="202" height="205" viewBox="0 0 202 205" fill="none" xmlns="http://www.w3.org/2000/svg">
<path d="M54.124 8.1406C55.8443 9.8444 57.6569 11.448 59.6729 12.7886C69.9563 19.6284 100.553 36.086 149.08 29.36C209.712 20.9561 200.817 81.9188 192.092 98.1663C183.368 114.414 151.281 144.198 148.586 159.121C145.891 174.044 157.423 214.804 130.402 202.573C103.381 190.342 87.771 161.695 52.3037 165.025C16.8364 168.354 -8.22573 152.638 7.47429 124.558C23.1743 96.4778 41.9449 78.3577 17.9865 47.0801C-5.30687 16.6723 33.9284 -11.8604 54.124 8.1406Z" fill="#DEE9FF"/>
<path d="M115.647 39.6429C115.197 39.1902 114.94 38.5812 114.929 37.9432C114.918 37.3053 115.154 36.6877 115.588 36.2197L131.586 18.9521C131.813 18.7075 132.086 18.5112 132.391 18.3752C132.695 18.2391 133.024 18.1659 133.357 18.1602C133.691 18.1544 134.022 18.2161 134.331 18.3415C134.64 18.467 134.92 18.6536 135.155 18.8902L136.536 20.2809C136.771 20.5175 136.956 20.7992 137.079 21.109C137.202 21.4188 137.261 21.7504 137.253 22.0837C137.245 22.417 137.17 22.7453 137.032 23.0487C136.893 23.3522 136.695 23.6245 136.449 23.8494L119.07 39.7262C118.599 40.1567 117.98 40.3884 117.342 40.3729C116.704 40.3573 116.097 40.0958 115.647 39.6429V39.6429Z" fill="#418DF9"/>
<path d="M105.521 33.757C105.138 33.5875 104.836 33.2767 104.677 32.8896C104.519 32.5025 104.516 32.0691 104.669 31.6799L110.331 17.3208C110.411 17.1174 110.532 16.9323 110.685 16.7767C110.839 16.6211 111.022 16.4981 111.225 16.4152C111.427 16.3323 111.644 16.2911 111.862 16.2942C112.081 16.2973 112.297 16.3446 112.497 16.4332L113.671 16.954C113.871 17.0426 114.051 17.1706 114.2 17.3305C114.349 17.4904 114.465 17.6788 114.539 17.8844C114.614 18.09 114.646 18.3085 114.633 18.5268C114.621 18.745 114.565 18.9586 114.468 19.1546L107.632 32.9929C107.447 33.3681 107.123 33.6572 106.73 33.7996C106.336 33.942 105.903 33.9267 105.521 33.757Z" fill="#418DF9"/>
<path d="M95.2179 36.104C93.9131 36.3389 92.6041 35.2193 92.2499 33.5661L85.9706 4.2103C85.596 2.45596 86.436 0.787445 87.8202 0.537965L89.7491 0.190764C91.1331 -0.0584362 92.5032 1.21276 92.7632 2.98726L97.1141 32.6901C97.3591 34.3635 96.5227 35.8691 95.2179 36.104Z" fill="#418DF9"/>
<path d="M196.712 63.7307L169.018 60.1607C168.552 60.1109 168.081 60.2045 167.67 60.4289C167.258 60.6534 166.924 60.998 166.714 61.4169L159.35 75.9571L128.524 137.608C128.196 138.259 127.647 138.772 126.976 139.055C126.304 139.338 125.553 139.373 124.858 139.152L41.188 112.445C40.9572 112.372 40.7122 112.354 40.4732 112.393C40.2342 112.433 40.008 112.528 39.8132 112.672C39.6183 112.816 39.4605 113.005 39.3526 113.221C39.2447 113.438 39.1898 113.678 39.1925 113.92L39.2309 117.394C39.2356 117.878 39.3926 118.347 39.6795 118.735C39.9665 119.124 40.3687 119.412 40.829 119.559L129.354 147.815C130.341 148.13 131.227 148.7 131.923 149.468C132.618 150.236 133.098 151.174 133.315 152.187L133.344 152.325C134.114 156.555 129.946 160.027 125.838 158.78L28.7673 127.756C28.2694 127.598 27.8404 127.274 27.5515 126.839C27.2626 126.404 27.131 125.883 27.1784 125.362L34.7754 42.4028C34.8136 41.9751 34.9413 41.5601 35.1503 41.185C35.3592 40.8098 35.6447 40.4828 35.9883 40.2251C36.3318 39.9674 36.7257 39.7849 37.1444 39.6893C37.5631 39.5938 37.9972 39.5873 38.4185 39.6704L154.708 62.4194L162.198 47.5341C162.414 47.1134 162.754 46.7692 163.172 46.5479C163.59 46.3267 164.066 46.239 164.536 46.2968L198.449 50.6396C198.75 50.6774 199.04 50.7745 199.303 50.9252C199.566 51.076 199.797 51.2774 199.981 51.5179C200.166 51.7583 200.301 52.033 200.379 52.3261C200.457 52.6191 200.476 52.9247 200.434 53.2251L199.278 61.755C199.198 62.3564 198.883 62.9017 198.402 63.2719C197.921 63.642 197.314 63.8069 196.712 63.7307V63.7307Z" fill="#699CFF"/>
<path d="M39.4646 98.2416L48.9404 101.266L58.0299 55.1744L43.4827 52.9407L39.4646 98.2416Z" fill="#DEE9FF"/>
<path d="M113.813 121.972L123.289 124.997L147.794 73.3843L137.357 70.8561L113.813 121.972Z" fill="#DEE9FF"/>
<path d="M77.3677 110.34L86.1146 113.131L104.851 64.4966L90.5362 61.5341L77.3677 110.34Z" fill="#DEE9FF"/>
<path d="M66.2806 57.0046L80.5951 59.9672L67.8919 107.315L58.4163 104.29L66.2806 57.0046Z" fill="#DEE9FF"/>
<path d="M128.377 68.7931L114.063 65.8304L96.3191 116.388L105.066 119.18L128.377 68.7931Z" fill="#DEE9FF"/>
<path d="M41.2932 157.708C47.4205 157.708 52.3876 152.741 52.3876 146.613C52.3876 140.486 47.4205 135.519 41.2932 135.519C35.1659 135.519 30.1987 140.486 30.1987 146.613C30.1987 152.741 35.1659 157.708 41.2932 157.708Z" fill="#A2BDFF"/>
<path d="M110.539 179.81C116.666 179.81 121.633 174.843 121.633 168.715C121.633 162.588 116.666 157.621 110.539 157.621C104.412 157.621 99.4446 162.588 99.4446 168.715C99.4446 174.843 104.412 179.81 110.539 179.81Z" fill="#A2BDFF"/>
<path d="M201.694 50.1807L172.466 46.5216C172.304 46.5013 172.156 46.6162 172.136 46.7783L170.365 60.9287C170.344 61.0908 170.459 61.2386 170.621 61.2589L199.849 64.918C200.011 64.9383 200.159 64.8234 200.179 64.6613L201.95 50.5108C201.971 50.3488 201.856 50.201 201.694 50.1807Z" fill="#A2BDFF"/>
</svg>
