<svg width="396" height="401" viewBox="0 0 396 401" fill="none" xmlns="http://www.w3.org/2000/svg">
<g clip-path="url(#clip0_303_24)">
<path d="M106.534 16.3841C109.891 19.7086 113.428 22.8375 117.361 25.4534C137.427 38.7994 197.127 70.9117 291.814 57.7878C410.121 41.3899 392.765 160.342 375.741 192.044C358.717 223.747 296.108 281.863 290.85 310.981C285.591 340.099 308.094 419.629 255.369 395.764C202.645 371.899 172.187 316.003 102.983 322.5C33.7781 328.996 -15.1236 298.33 15.5106 243.54C46.1448 188.749 82.7704 153.393 36.0222 92.3635C-9.42825 33.0314 67.1284 -22.6422 106.534 16.3841Z" fill="#DEE9FF"/>
<path d="M226.579 77.8522C225.702 76.9688 225.2 75.7805 225.178 74.5357C225.157 73.2909 225.617 72.0859 226.463 71.1726L257.68 37.4797C258.122 37.0025 258.656 36.6196 259.25 36.3541C259.844 36.0885 260.485 35.9458 261.136 35.9346C261.786 35.9233 262.432 36.0437 263.035 36.2884C263.638 36.5332 264.185 36.8974 264.643 37.359L267.338 40.0727C267.797 40.5343 268.157 41.084 268.397 41.6885C268.638 42.293 268.754 42.9398 268.738 43.5903C268.722 44.2407 268.575 44.8812 268.305 45.4732C268.036 46.0653 267.649 46.5967 267.169 47.0355L233.258 78.0147C232.339 78.8546 231.131 79.3067 229.886 79.2764C228.641 79.2461 227.456 78.7358 226.579 77.8522V77.8522Z" fill="#418DF9"/>
<path d="M206.82 66.3674C206.074 66.0367 205.485 65.4303 205.175 64.6749C204.865 63.9196 204.86 63.0738 205.159 62.3144L216.206 34.2967C216.363 33.8998 216.598 33.5387 216.898 33.2351C217.197 32.9314 217.555 32.6915 217.95 32.5297C218.345 32.3679 218.768 32.2876 219.195 32.2937C219.621 32.2997 220.042 32.3919 220.432 32.5648L222.725 33.5809C223.115 33.7538 223.466 34.0037 223.756 34.3157C224.047 34.6277 224.272 34.9953 224.417 35.3964C224.563 35.7975 224.625 36.2239 224.602 36.6498C224.578 37.0757 224.468 37.4925 224.279 37.8749L210.94 64.8765C210.579 65.6086 209.948 66.1725 209.18 66.4504C208.412 66.7283 207.567 66.6986 206.82 66.3674Z" fill="#418DF9"/>
<path d="M186.717 70.9467C184.171 71.4051 181.617 69.2206 180.926 65.9947L168.674 8.71519C167.943 5.29209 169.582 2.03645 172.283 1.54966L176.047 0.872192C178.747 0.385948 181.42 2.86634 181.928 6.32878L190.417 64.2855C190.895 67.5507 189.263 70.4884 186.717 70.9467Z" fill="#418DF9"/>
<path d="M384.755 124.853L330.718 117.887C329.808 117.79 328.89 117.972 328.087 118.41C327.283 118.848 326.633 119.521 326.221 120.338L311.853 148.709L251.705 269.003C251.066 270.273 249.995 271.275 248.684 271.827C247.373 272.379 245.908 272.447 244.552 272.017L81.2934 219.905C80.8431 219.762 80.3651 219.727 79.8987 219.804C79.4324 219.881 78.991 220.068 78.6108 220.349C78.2307 220.629 77.9227 220.997 77.7122 221.42C77.5017 221.843 77.3946 222.31 77.3999 222.783L77.4747 229.562C77.4839 230.505 77.7902 231.421 78.3501 232.179C78.91 232.937 79.6949 233.5 80.593 233.786L253.325 288.919C255.251 289.534 256.98 290.647 258.337 292.145C259.694 293.643 260.631 295.473 261.053 297.45L261.11 297.72C262.613 305.973 254.48 312.748 246.465 310.315L57.0579 249.781C56.0864 249.472 55.2495 248.84 54.6857 247.991C54.1219 247.141 53.8651 246.125 53.9577 245.109L68.7811 83.2372C68.8556 82.4026 69.1048 81.593 69.5125 80.861C69.9202 80.1289 70.4774 79.4908 71.1477 78.9881C71.818 78.4853 72.5866 78.1291 73.4035 77.9427C74.2204 77.7562 75.0674 77.7436 75.8895 77.9058L302.796 122.294L317.41 93.2495C317.832 92.4286 318.496 91.757 319.312 91.3253C320.127 90.8936 321.056 90.7225 321.972 90.8352L388.144 99.309C388.731 99.3827 389.297 99.5722 389.81 99.8663C390.324 100.161 390.773 100.554 391.134 101.023C391.494 101.492 391.758 102.028 391.91 102.6C392.062 103.172 392.098 103.768 392.018 104.354L389.762 120.998C389.605 122.171 388.991 123.235 388.053 123.957C387.115 124.68 385.929 125.001 384.755 124.853V124.853Z" fill="#699CFF"/>
<path d="M77.9309 192.191L96.4202 198.092L114.156 108.157L85.7712 103.799L77.9309 192.191Z" fill="#DEE9FF"/>
<path d="M223 238.495L241.49 244.396L289.305 143.689L268.94 138.756L223 238.495Z" fill="#DEE9FF"/>
<path d="M151.888 215.797L168.955 221.244L205.513 126.347L177.582 120.566L151.888 215.797Z" fill="#DEE9FF"/>
<path d="M130.255 111.729L158.185 117.509L133.398 209.895L114.909 203.993L130.255 111.729Z" fill="#DEE9FF"/>
<path d="M251.419 134.731L223.488 128.95L188.866 227.599L205.934 233.047L251.419 134.731Z" fill="#DEE9FF"/>
<path d="M81.4988 308.223C93.4545 308.223 103.146 298.53 103.146 286.575C103.146 274.619 93.4545 264.927 81.4988 264.927C69.5431 264.927 59.8511 274.619 59.8511 286.575C59.8511 298.53 69.5431 308.223 81.4988 308.223Z" fill="#A2BDFF"/>
<path d="M216.613 351.349C228.568 351.349 238.26 341.657 238.26 329.701C238.26 317.745 228.568 308.053 216.613 308.053C204.657 308.053 194.965 317.745 194.965 329.701C194.965 341.657 204.657 351.349 216.613 351.349Z" fill="#A2BDFF"/>
<path d="M394.475 98.4134L337.446 91.2737C337.13 91.2341 336.841 91.4583 336.802 91.7745L333.345 119.385C333.306 119.701 333.53 119.99 333.846 120.029L390.875 127.169C391.191 127.209 391.48 126.984 391.519 126.668L394.976 99.0576C395.016 98.7414 394.791 98.453 394.475 98.4134Z" fill="#A2BDFF"/>
</g>
<defs>
<clipPath id="clip0_303_24">
<rect width="394.146" height="400" fill="white" transform="translate(0.926758 0.5)"/>
</clipPath>
</defs>
</svg>
