<svg width="450" height="450" viewBox="0 0 450 450" fill="none" xmlns="http://www.w3.org/2000/svg">
<path d="M370.443 175.862C370.443 175.862 319.331 212.654 365.009 306.45C405.576 389.75 293.994 413.361 248.216 399.718C188.915 382.046 161.602 302.288 113.035 322.023C64.468 341.758 29.2901 227.631 100.433 193.771C188.933 151.652 138.077 117.278 149.151 81.1885C157.1 55.2867 237.779 21.856 274.639 72.4616C305.658 115.044 324.087 102.667 340.505 98.9716C364.184 93.6418 410.475 137.762 370.443 175.862Z" fill="#DEE9FF"/>
<path d="M371.055 208.717L370.705 210.896C370.413 212.712 369.412 214.337 367.922 215.415C366.432 216.492 364.575 216.933 362.76 216.642L362.6 216.616C361.071 216.371 359.503 216.644 358.148 217.393C356.792 218.142 355.726 219.323 355.12 220.749L305.952 336.386C304.533 339.728 302.036 342.499 298.859 344.256C295.682 346.013 292.008 346.655 288.423 346.08L151.301 324.048C147.636 323.468 144.281 321.647 141.798 318.89C139.315 316.132 137.854 312.606 137.66 308.901L130.851 184.911C130.764 183.33 130.139 181.827 129.079 180.651C128.02 179.475 126.59 178.697 125.027 178.446C124.128 178.301 123.267 177.981 122.491 177.504C121.716 177.026 121.042 176.401 120.509 175.663C119.975 174.925 119.592 174.089 119.382 173.203C119.171 172.318 119.137 171.399 119.282 170.5L119.632 168.321C119.776 167.422 120.096 166.56 120.574 165.785C121.051 165.009 121.677 164.336 122.414 163.802C123.152 163.269 123.988 162.886 124.874 162.675C125.76 162.465 126.678 162.431 127.577 162.575L185.663 171.908C186.555 172.051 187.47 171.933 188.297 171.569C189.123 171.205 189.827 170.609 190.324 169.854L230.892 108.124C231.429 107.303 232.192 106.655 233.089 106.257C233.986 105.86 234.979 105.731 235.948 105.886C236.651 105.995 237.323 106.254 237.916 106.648C238.476 107.014 238.959 107.487 239.336 108.041C239.713 108.594 239.978 109.216 240.114 109.871C240.251 110.527 240.257 111.202 240.132 111.86C240.007 112.518 239.754 113.145 239.387 113.705L203.629 168.102C203.199 168.756 202.94 169.507 202.875 170.286C202.81 171.066 202.941 171.85 203.256 172.566C203.572 173.282 204.061 173.907 204.681 174.386C205.3 174.864 206.029 175.18 206.802 175.304L284.109 187.724C284.882 187.848 285.674 187.777 286.412 187.516C287.15 187.256 287.811 186.815 288.335 186.234C288.859 185.652 289.229 184.949 289.411 184.188C289.593 183.427 289.582 182.632 289.378 181.876L272.431 119.014C272.089 117.708 272.276 116.32 272.951 115.151C273.627 113.983 274.736 113.128 276.038 112.773C276.725 112.585 277.444 112.549 278.146 112.666C279.115 112.823 280.017 113.256 280.745 113.914C281.472 114.572 281.993 115.427 282.246 116.375L301.436 187.707C301.671 188.579 302.153 189.365 302.824 189.97C303.495 190.575 304.326 190.973 305.219 191.117L365.309 200.771C366.208 200.916 367.07 201.236 367.845 201.713C368.621 202.191 369.294 202.816 369.828 203.554C370.361 204.292 370.744 205.127 370.955 206.013C371.166 206.899 371.2 207.818 371.055 208.717V208.717Z" fill="#418DF9"/>
<path d="M189.045 191.731L173.903 189.298C173.78 189.279 173.664 189.362 173.645 189.485L155.598 301.805C155.578 301.928 155.661 302.043 155.784 302.063L170.927 304.496C171.049 304.516 171.165 304.432 171.184 304.31L189.232 191.989C189.251 191.867 189.168 191.751 189.045 191.731Z" fill="#DEE9FF"/>
<path d="M314.396 211.514L299.253 209.081C299.13 209.061 299.015 209.145 298.995 209.267L280.948 321.588C280.929 321.71 281.012 321.826 281.135 321.845L296.277 324.278C296.4 324.298 296.515 324.215 296.535 324.092L314.582 211.772C314.602 211.649 314.518 211.534 314.396 211.514Z" fill="#DEE9FF"/>
<path d="M220.228 196.775L205.091 194.336C204.968 194.317 204.853 194.4 204.833 194.523L186.745 306.805C186.725 306.927 186.808 307.043 186.931 307.063L202.068 309.501C202.191 309.521 202.307 309.438 202.326 309.315L220.414 197.033C220.434 196.91 220.351 196.795 220.228 196.775Z" fill="#DEE9FF"/>
<path d="M251.748 201.448L236.606 199.015C236.483 198.995 236.368 199.078 236.348 199.201L218.301 311.521C218.281 311.644 218.365 311.759 218.487 311.779L233.63 314.212C233.753 314.232 233.868 314.148 233.888 314.026L251.935 201.705C251.955 201.583 251.871 201.467 251.748 201.448Z" fill="#DEE9FF"/>
<path d="M283.072 206.48L267.93 204.047C267.807 204.028 267.692 204.111 267.672 204.234L249.625 316.554C249.605 316.677 249.689 316.792 249.811 316.812L264.954 319.245C265.077 319.265 265.192 319.181 265.212 319.059L283.259 206.738C283.279 206.616 283.195 206.5 283.072 206.48Z" fill="#DEE9FF"/>
</svg>
